<svg width="65" height="65" viewBox="0 0 65 65" fill="none" xmlns="http://www.w3.org/2000/svg">
<g clip-path="url(#clip0_1176_2693)">
<path d="M31.9903 46.5805C27.8877 46.6013 24.4901 45.8901 21.6335 43.6056C20.671 42.836 19.9301 41.7511 19.2198 40.7195C18.8116 40.1264 18.8681 39.3393 19.6022 38.9374C20.2251 38.5965 20.8562 38.789 21.2912 39.3762C23.8983 42.8953 27.6647 43.6695 31.6925 43.6419C33.2195 43.6316 34.7546 43.2816 36.2668 42.9884C38.9289 42.4721 41.068 41.1416 42.5201 38.7852C42.8655 38.2505 43.2696 37.7562 43.7249 37.3113C44.3019 36.7245 44.9972 36.3482 45.7841 36.9154C46.4832 37.4195 46.4695 38.1211 46.1799 38.874C45.3458 41.1099 43.7644 42.9885 41.7035 44.1916C38.5538 46.0633 35.0502 46.4868 31.9903 46.5805Z" fill="#00AFC1"/>
<path d="M23.9309 20.264L22.1707 19.8736C18.2245 18.9994 14.8054 19.7753 12.1083 22.9909C11.8278 23.3253 11.2207 23.3859 10.7653 23.5736C10.6333 23.0545 10.2276 22.3737 10.4208 22.0437C11.0051 21.0492 11.6726 19.9947 12.5739 19.3144C16.2982 16.5075 20.432 16.3589 24.7169 17.8118C25.4035 18.0448 25.9444 18.524 25.7564 19.3403C25.572 20.1463 24.9235 20.3465 23.9309 20.264Z" fill="#00AFC1"/>
<path d="M21.1938 24.2754C23.4103 24.3219 25.2449 25.2964 26.7344 26.9656C26.991 27.2217 27.1639 27.5498 27.23 27.9063C27.2644 28.3727 27.2559 29.0116 26.9783 29.2791C26.7502 29.4977 26.0495 29.4067 25.6552 29.2332C25.0419 28.9633 24.5119 28.5054 23.9447 28.1297C20.8687 26.0922 18.1206 26.7804 16.2896 29.9706C16.0483 30.3908 15.3976 30.8798 14.9905 30.8361C14.2094 30.7519 14.2015 29.9619 14.2747 29.3122C14.5558 26.8162 17.0646 24.6587 20.042 24.3399C20.4032 24.3006 20.7682 24.2976 21.1938 24.2754Z" fill="#00AFC1"/>
<path d="M45.561 15.8139C47.4415 15.7484 49.2009 16.3057 50.863 17.2114C51.2633 17.4245 51.639 17.681 51.9832 17.9763C52.5282 18.4547 52.9003 19.0609 52.4916 19.7795C52.0466 20.5611 51.2895 20.5002 50.5636 20.2578C50.1811 20.1134 49.8171 19.9239 49.4795 19.6931C46.5077 17.8179 43.5664 17.9299 40.6409 19.7999C40.1605 20.1422 39.6514 20.4422 39.1192 20.6966C38.8309 20.8162 38.2777 20.8242 38.1356 20.6482C38.0285 20.4868 37.9556 20.3051 37.9215 20.1144C37.8874 19.9236 37.8928 19.7279 37.9373 19.5393C38.0825 19.1594 38.3255 18.8245 38.6416 18.5686C40.577 16.7638 42.803 15.6651 45.561 15.8139Z" fill="#00AFC1"/>
<path d="M46.1337 23.1655C47.6746 23.1125 49.2452 23.7411 50.5708 24.9583C51.0079 25.3544 51.3852 25.8118 51.6909 26.3163C52.26 27.2796 52.1496 28.3443 51.5215 28.8088C50.8634 29.2956 50.0752 29.0221 49.2078 28.0061C46.8484 25.2418 44.2549 25.0722 41.4901 27.5018C41.3876 27.5917 41.2923 27.6894 41.1896 27.7801C40.7074 28.2112 40.1672 28.7464 39.5375 28.1899C38.8545 27.5862 39.1875 26.8753 39.6293 26.2423C40.9421 24.3629 43.4443 23.1245 46.1337 23.1655Z" fill="#00AFC1"/>
<path d="M1.79907 23.9164C-1.02912 35.0322 1.44746 44.8383 9.16516 53.0658C9.36597 53.2784 9.57087 53.4909 9.77577 53.6958C13.9213 57.8414 19.0851 60.401 23.1769 62.1823C24.9328 62.9492 33.9438 63.8805 36.3816 63.5174C50.8703 61.3536 60.4051 53.1819 63.7259 39.5103C64.3601 36.8322 64.6759 34.0887 64.6668 31.3366C64.6821 24.8535 61.9525 17.3164 56.3232 11.6715C55.7437 11.1923 55.1659 10.6959 54.6078 10.2148C53.3964 9.17359 52.1446 8.09558 50.8348 7.17625C40.8299 0.134457 30.4345 0.0950563 19.9389 3.82919C10.4364 7.20788 4.33357 13.9675 1.79907 23.9164ZM19.9796 7.15764C29.1887 3.3309 38.4287 2.65554 47.4406 8.38705C49.0885 9.43615 53.4813 12.9867 54.1731 13.52L54.2174 13.5528L54.2542 13.5935C57.7701 17.3219 61.7946 24.1391 61.7072 31.147C61.6778 34.1435 61.2722 37.1244 60.4999 40.0198C58.2105 48.3404 52.7377 54.4044 43.7682 58.5519C34.65 62.918 21.5735 58.5042 18.0942 56.2074C14.2486 53.5783 10.8837 50.3075 8.14666 46.5379C3.8541 40.4605 2.89079 31.7245 5.19744 23.7386C6.27699 20.0513 8.16353 16.6504 10.7203 13.7825C13.277 10.9147 16.4399 8.65168 19.9796 7.15764Z" fill="#00AFC1"/>
</g>
<defs>
<clipPath id="clip0_1176_2693">
<rect width="64" height="64" fill="white" transform="translate(0.666504 0.479492)"/>
</clipPath>
</defs>
</svg>
