<svg width="64" height="65" viewBox="0 0 64 65" fill="none" xmlns="http://www.w3.org/2000/svg">
<g clip-path="url(#clip0_1176_2687)">
<path d="M32.6833 45.0667C29.4494 44.9973 26.9676 44.5246 24.6022 43.487C22.8344 42.7299 21.3381 41.4541 20.311 39.8283C19.9285 39.2272 19.6245 38.513 20.243 37.9683C20.9284 37.3648 21.609 37.7634 22.1368 38.3508C25.306 41.8841 29.4261 42.6892 33.8272 42.0376C37.5326 41.4888 40.3362 39.3876 41.9549 35.8955C42.1462 35.4857 42.2719 34.9562 42.5994 34.7207C43.0639 34.3874 43.7608 34.0148 44.2244 34.1432C44.6993 34.2746 45.329 34.9901 45.3284 35.4488C45.3415 36.346 45.1065 37.2293 44.6493 38.0014C41.6826 42.5294 37.4821 44.9467 32.6833 45.0667Z" fill="#00AFC1"/>
<path d="M40.7955 22.8766C40.9881 21.8406 41.0872 21.08 41.2777 20.3429C41.5096 19.4452 42.0637 18.7925 43.0316 18.6764C44.0151 18.5597 44.7951 18.9993 45.3721 19.7763C46.4103 21.1759 46.2969 24.7672 45.1894 26.1031C44.1922 27.3052 42.3718 27.2536 41.67 25.8611C41.1785 24.8868 41.035 23.7361 40.7955 22.8766Z" fill="#00AFC1"/>
<path d="M22.1373 22.927C21.8641 23.9668 21.7548 24.8437 21.4065 25.6142C20.7544 27.0621 19.1263 27.2329 18.2499 25.924C17.0852 24.1845 16.9986 22.2008 17.6762 20.2987C18.2155 18.7846 20.2041 18.6388 21.0603 20.0296C21.6103 20.9233 21.8168 22.0287 22.1373 22.927Z" fill="#00AFC1"/>
<path d="M1.13257 23.9171C-1.69562 35.0328 0.780935 44.8389 8.49864 53.0664C8.69944 53.279 8.90434 53.4915 9.10897 53.6964C13.2548 57.842 18.4186 60.4016 22.5101 62.1829C24.2663 62.9498 33.277 63.8811 35.7151 63.518C50.2038 61.3543 59.7386 53.1825 63.0594 39.5109C63.6935 36.8328 64.0093 34.0893 64.0003 31.3372C64.0156 24.8541 61.286 17.317 55.6567 11.6721C55.077 11.1929 54.4994 10.6965 53.941 10.2154C52.7299 9.1742 51.4781 8.09619 50.1683 7.17686C40.1634 0.135068 29.768 0.0956665 19.2724 3.8298C9.76986 7.20849 3.66707 13.9681 1.13257 23.9171ZM19.3131 7.15825C28.522 3.33151 37.7619 2.65615 46.7741 8.38767C48.4217 9.43676 52.8149 12.9873 53.5066 13.5206L53.5509 13.5534L53.5875 13.5941C57.1036 17.3225 61.1295 24.1397 61.0407 31.1477C61.0113 34.1441 60.6056 37.125 59.8331 40.0204C57.544 48.3411 52.0712 54.4051 43.1017 58.5526C33.9833 62.9186 20.9067 58.5048 17.4274 56.208C13.5819 53.5788 10.2172 50.308 7.48016 46.5385C3.1876 40.4611 2.22428 31.7252 4.53093 23.7392C5.61048 20.0519 7.49703 16.651 10.0538 13.7832C12.6105 10.9153 15.7734 8.6523 19.3131 7.15825Z" fill="#00AFC1"/>
</g>
<defs>
<clipPath id="clip0_1176_2687">
<rect width="64" height="64" fill="white" transform="translate(0 0.479492)"/>
</clipPath>
</defs>
</svg>
