<svg width="65" height="65" viewBox="0 0 65 65" fill="none" xmlns="http://www.w3.org/2000/svg">
<g clip-path="url(#clip0_1176_2699)">
<path d="M64.1712 17.7104C64.6176 15.8005 64.1982 15.0908 62.1858 15.069C60.9004 15.0555 59.6144 15.0237 58.3296 15.0404C57.5196 13.9478 56.6314 12.9154 55.6719 11.9515C55.1 11.479 54.5302 10.989 53.9792 10.5146C52.7844 9.48713 51.5494 8.42386 50.2572 7.5166C40.3866 0.569587 30.1307 0.530504 19.776 4.21479C13.709 6.37108 9.04843 9.9289 5.83664 14.8269C4.72777 14.8191 3.61863 14.8159 2.5103 14.8067C0.50064 14.7903 -0.0314226 15.5547 0.561017 17.4401C0.633405 17.7437 0.675034 18.0539 0.685273 18.3659C0.872776 20.4591 1.22891 22.5337 1.75021 24.5695C-0.825478 35.3146 1.65749 44.8063 9.14681 52.79C9.34492 52.9997 9.54707 53.2091 9.74895 53.4099C13.8392 57.5001 18.9337 60.0254 22.9702 61.7825C24.7028 62.539 33.5926 63.4582 35.998 63.0997C50.2923 60.9653 59.6991 52.9029 62.9753 39.4148C63.6008 36.7727 63.9123 34.066 63.9033 31.3508C63.8964 29.0336 63.5759 26.7278 62.9505 24.4965C63.0353 24.2183 63.1161 23.9399 63.1931 23.661C63.7246 21.7354 63.7146 19.6645 64.1712 17.7104ZM59.5546 23.4707C59.1438 24.8933 58.719 26.2854 58.2266 27.6528C57.0425 30.9473 54.4377 32.5977 50.9785 32.6872C48.8403 32.7425 46.6541 32.7249 44.5609 32.3462C40.2124 31.5592 37.2737 28.2166 36.5974 23.8119C36.3818 22.4068 36.7492 21.413 38.1467 21.0176C40.9855 20.2155 43.8018 19.1802 46.7015 18.7856C50.0551 18.329 53.4536 18.2028 56.8452 18.0309C57.935 19.745 58.8431 21.5681 59.5546 23.4707ZM19.8161 7.49877C28.9014 3.72311 38.0173 3.05682 46.9085 8.71168C48.5341 9.7467 52.8682 13.2499 53.5504 13.7757L53.5943 13.8081L53.6305 13.8483C54.0046 14.245 54.3852 14.6793 54.7647 15.142C49.613 15.3641 44.5091 15.952 39.5885 17.6872C38.0433 18.2628 36.5821 19.0424 35.2435 20.0053C33.9139 20.9333 31.1002 20.9545 29.7482 20.0066C28.337 19.0174 26.8373 18.056 25.2349 17.4571C20.9608 15.8595 16.4574 15.2536 11.9271 14.99C11.2656 14.9514 10.6036 14.9237 9.9414 14.9013C12.5759 11.6611 15.9671 9.11889 19.8161 7.49877ZM7.94279 17.7212C9.1142 17.7142 10.277 17.7212 11.4373 17.7751C16.0194 17.9851 20.5646 18.5538 24.9036 20.1152C28.5652 21.433 28.8601 21.4516 27.5397 25.5925C26.0642 30.2193 22.4233 32.2064 17.7779 32.4516C15.9435 32.5157 14.1069 32.4299 12.2864 32.1953C10.008 31.9411 8.34764 30.7107 7.1482 28.7202C6.28187 27.2502 5.6224 25.6677 5.18841 24.0176C5.2035 23.9637 5.21698 23.9111 5.23234 23.8583C5.85624 21.7002 6.76792 19.6359 7.94279 17.7212ZM4.16929 17.7536C4.12482 17.8436 4.07873 17.9323 4.03452 18.0231C4.02105 17.9333 4.00757 17.8439 3.99382 17.7536H4.16929ZM60.9839 31.1662C60.955 34.1226 60.5547 37.0636 59.7926 39.9202C57.5341 48.1289 52.1348 54.1115 43.2857 58.2036C34.2897 62.5108 21.3886 58.1564 17.956 55.8902C14.1621 53.2963 10.8424 50.0695 8.14198 46.3507C5.02291 41.9344 3.6879 36.0955 4.10892 30.1773C4.21673 30.3549 4.3267 30.5323 4.44233 30.7077C5.86117 32.8559 7.73336 34.3464 10.2511 34.9863C13.7343 35.9068 17.3839 36.0048 20.9115 35.2725C26.064 34.1855 29.2456 30.9953 30.7345 26.0275C30.9194 25.277 31.0655 24.5174 31.1722 23.7518H33.5093C33.5727 24.1116 33.6322 24.414 33.6789 24.7186C34.591 30.6632 38.5141 34.8413 44.4603 35.6241C47.2608 35.9928 50.1745 35.7909 53.0097 35.5297C56.5676 35.2017 59.2276 33.243 60.7724 30.0271C60.8287 29.9099 60.8829 29.791 60.9381 29.673C60.9726 30.1692 60.9901 30.667 60.9839 31.1662ZM60.2438 17.9794C60.4883 18.0037 60.7635 18.0304 61.0926 18.0549C60.9963 18.3818 60.9039 18.7053 60.8112 19.0285C60.6299 18.6763 60.4409 18.3266 60.2438 17.9794Z" fill="#00AFC1"/>
<path d="M45.4887 39.2108C44.6855 38.5831 43.6626 39.0343 42.6979 40.5459C41.0753 43.0887 38.8056 44.638 35.8447 45.0021C33.6784 45.2684 31.4642 45.4692 29.2966 45.3228C26.3093 45.1212 23.4641 44.3794 21.5633 41.6571C21.3008 41.2811 20.1685 41.0526 19.8383 41.2965C19.597 41.5234 19.4127 41.8041 19.3003 42.1157C19.1879 42.4273 19.1506 42.761 19.1914 43.0897C19.5626 44.6824 20.7008 45.7975 22.0628 46.6624C25.3018 48.7176 28.9298 49.0842 32.7442 49.1133C33.8898 48.9729 35.1431 48.8796 36.3751 48.6551C40.4317 47.9193 43.8844 46.2708 45.6766 42.2431C46.1396 41.2078 46.6358 40.1076 45.4887 39.2108Z" fill="#00AFC1"/>
</g>
<defs>
<clipPath id="clip0_1176_2699">
<rect width="64" height="64" fill="white" transform="translate(0.333496 0.479492)"/>
</clipPath>
</defs>
</svg>
