<svg width="49" height="49" viewBox="0 0 49 49" fill="none" xmlns="http://www.w3.org/2000/svg">
<g clip-path="url(#clip0_4901_169)">
<path d="M27.1124 44.0835C31.7293 43.3298 39.7471 37.7378 42.9153 30.128C42.637 29.9209 42.3703 29.6988 42.1164 29.4625C41.5015 28.8377 41.4087 28.1425 41.8435 27.6576C42.2826 27.1671 42.9762 27.1419 43.6922 27.6195C44.1996 27.9587 44.684 28.3318 45.1798 28.6884C45.9231 29.2239 46.675 29.747 47.4067 30.2974C47.6816 30.4943 47.9244 30.7328 48.1259 31.0043C48.2798 31.211 48.3645 31.4609 48.3681 31.7185C48.3717 31.9762 48.2939 32.2283 48.1457 32.4391C47.996 32.668 47.7754 32.8414 47.5178 32.9328C47.2599 33.0243 46.9795 33.0286 46.719 32.9453C46.2999 32.7845 45.8913 32.5972 45.496 32.3846C44.6967 34.2169 43.6369 35.9243 42.3494 37.4535C39.4224 40.8786 35.9942 43.6392 31.8783 45.5308C27.0837 47.7347 22.2866 47.596 17.4745 45.6375C14.1686 44.292 11.251 42.3295 8.63218 39.923C7.57306 38.9683 6.56308 37.9605 5.60617 36.9033C4.71143 35.8951 3.94184 34.7759 3.07725 33.6536C2.83989 33.8109 2.59219 33.9521 2.33585 34.0761C2.08881 34.1951 1.80891 34.2276 1.54118 34.1683C1.27344 34.109 1.03343 33.9614 0.859746 33.7492C0.55568 33.3491 0.551717 32.8213 0.868874 32.3227C0.975081 32.1488 1.10542 31.9909 1.25603 31.8534C2.38046 30.8718 3.50689 29.892 4.64877 28.9308C4.86911 28.7755 5.11066 28.6527 5.36599 28.566C5.90689 28.3347 6.36844 28.5188 6.75145 28.9032C6.91729 29.0998 7.01487 29.3449 7.02949 29.6016C7.04413 29.8584 6.97503 30.1131 6.83257 30.3271C6.59979 30.6578 6.32373 30.9557 6.01181 31.213C5.68513 31.5049 5.31897 31.7531 4.94607 32.0387C5.07631 32.744 5.40683 33.3968 5.89816 33.9192C9.13122 37.6939 12.8058 40.9135 17.4076 42.9549C19.3346 43.805 21.3955 44.3118 23.4969 44.452C23.9272 44.483 24.3615 44.4566 24.7602 44.4566C24.5105 37.3617 24.2643 30.3591 24.0138 23.2588L18.1536 23.0135C18.1399 23.3086 18.1393 23.5984 18.1102 23.8852C18.0829 24.3922 18.0179 24.8966 17.9156 25.3938C17.8497 25.6783 17.6882 25.9314 17.4582 26.1111C17.2281 26.2908 16.9434 26.3862 16.6515 26.3812C16.3767 26.3677 16.1147 26.2612 15.9082 26.0795C15.7017 25.8976 15.5629 25.6513 15.5146 25.3804C15.3889 24.7851 15.34 24.176 15.369 23.5683C15.4365 22.3839 15.5737 21.2028 15.7112 20.0236C15.7571 19.6536 15.8514 19.2912 15.9916 18.9457C16.0557 18.7485 16.1845 18.5787 16.3571 18.4639C16.5298 18.3492 16.7361 18.296 16.9427 18.3133C17.1674 18.3201 17.3811 18.4124 17.54 18.5714C17.699 18.7304 17.7912 18.9441 17.798 19.1688C17.8615 19.7043 17.9253 20.2399 17.9993 20.8612C19.9901 21.1472 21.9722 20.9741 24.0196 20.9947V7.75129C23.6401 7.61899 23.2222 7.49727 22.8234 7.33006C21.2616 6.67551 20.4374 5.42414 20.6344 4.03651C20.8798 2.3093 22.167 0.865131 23.7447 0.712205C24.8223 0.600591 25.9081 0.594904 26.9869 0.695304C29.2224 0.921618 30.2953 2.64766 29.5931 4.77513C29.1427 6.14035 28.2628 7.12021 26.8895 7.61925C26.7625 7.66546 26.6328 7.7041 26.5069 7.7527C26.4789 7.76341 26.4616 7.80129 26.3452 7.93498C26.4815 12.1536 26.6211 16.4774 26.7617 20.8096H34.2039C34.2791 20.3626 34.3368 19.9677 34.4142 19.5766C34.4663 19.3134 34.4764 18.9986 34.6312 18.8098C34.8253 18.5733 35.1401 18.3222 35.4178 18.304C35.636 18.2895 35.9315 18.5799 36.0922 18.806C36.2346 19.0372 36.3119 19.3026 36.3161 19.5742C36.3909 21.0314 36.4675 22.4898 36.4798 23.9483C36.4669 24.4204 36.3617 24.8853 36.1707 25.3169C36.0896 25.5265 35.9414 25.7033 35.749 25.8193C35.5566 25.9353 35.3313 25.9843 35.1082 25.9583C34.9011 25.9548 34.7004 25.8855 34.535 25.7608C34.3695 25.6362 34.248 25.4623 34.1875 25.2641C34.0216 24.6889 33.9477 24.0881 33.814 23.3915H26.7913C26.8986 30.267 27.0057 37.1644 27.1124 44.0835ZM25.075 5.83292C26.2583 5.78035 27.0487 5.20354 27.2689 4.18066C27.4137 3.50827 27.1447 2.95942 26.4815 2.74303C25.94 2.54642 25.3751 2.42169 24.8013 2.37196C24.3308 2.35282 23.8631 2.45025 23.4394 2.65557C22.7698 2.989 22.5433 3.67666 22.5455 4.37048C22.5475 5.00083 23.081 5.29062 23.6033 5.4721C24.0785 5.63693 24.5833 5.71589 25.075 5.83292Z" fill="#00AFC1"/>
</g>
<defs>
<clipPath id="clip0_4901_169">
<rect width="48" height="48" fill="white" transform="translate(0.5 0.479492)"/>
</clipPath>
</defs>
</svg>
