<svg width="48" height="49" viewBox="0 0 48 49" fill="none" xmlns="http://www.w3.org/2000/svg">
<path d="M22.5387 44.6819L22.7832 44.7563C23.6826 45.0282 24.532 45.2848 25.0918 46.4089C25.106 46.4373 25.1259 46.4624 25.1503 46.4827C25.1747 46.5027 25.2031 46.5174 25.2334 46.5258C25.2526 46.5309 25.2723 46.5335 25.2921 46.5335C25.3355 46.5335 25.3779 46.5207 25.4143 46.497C25.8271 46.2257 26.2159 45.9799 26.5851 45.7465C27.3585 45.2573 28.0266 44.8351 28.6654 44.3432C30.9568 42.6173 33.0476 40.6362 34.8984 38.4368C37.331 35.497 39.8462 32.4569 42.2139 29.2746C43.6958 27.2825 44.9592 25.0585 46.027 23.1311C47.095 21.1809 47.7308 19.02 47.8907 16.7976C48.1805 13.1454 47.3197 9.85347 45.3328 7.01336C43.1213 3.85241 40.18 2.31298 36.5972 2.43167C32.5554 2.56797 29.0008 4.12716 26.0318 7.06614C25.8878 7.21541 25.7544 7.37479 25.6329 7.54309C25.4021 7.84696 25.183 8.13542 24.8534 8.2497C21.3902 4.84545 18.7423 3.51377 14.7812 3.17247C10.716 2.82191 7.42501 4.1413 4.99905 7.09195C3.7951 8.55043 2.73986 10.1277 1.84936 11.7998C-0.0488234 15.3866 -0.444361 19.2017 0.675566 23.1399C1.67435 26.655 3.33975 29.9407 5.57939 32.815C10.0571 38.5798 15.7632 42.5728 22.5387 44.6819ZM5.7703 12.479C6.29049 11.4898 6.87 10.5335 7.50552 9.61539C9.01643 7.38985 11.1459 6.26662 13.8463 6.26662C14.1809 6.26662 14.5241 6.28384 14.8761 6.31835C18.4831 6.67221 21.3766 8.27591 23.4762 11.0847C23.7284 11.4221 24.0031 11.7344 24.2453 12.0096C24.3439 12.1219 24.4366 12.2274 24.5184 12.3241C24.5525 12.3644 24.5996 12.3912 24.6513 12.4C25.6251 12.5696 26.0187 12.06 26.3108 11.5707C27.9969 8.74845 30.6212 7.06378 34.5701 6.26931C35.5052 6.10643 36.4591 6.08228 37.4012 6.1977C38.8971 6.34017 40.1802 7.08208 41.2155 8.40217C42.3952 9.91638 43.0944 11.7547 43.2214 13.6767C43.4302 15.8982 43.0259 18.1348 42.0535 20.1389C41.3206 21.6921 40.4865 23.1947 39.5566 24.6364C37.8299 27.2037 35.9859 29.756 34.2029 32.2242L33.5832 33.083C32.2554 34.9229 30.8822 36.7777 29.5545 38.5712C29.0754 39.2183 28.5967 39.8657 28.1182 40.5135C27.9118 40.7932 27.6969 41.0671 27.4696 41.3573C27.3945 41.4529 27.3184 41.5502 27.2409 41.6495C26.604 41.3853 25.984 41.127 25.3759 40.8747C23.9407 40.2788 22.5723 39.7105 21.2071 39.1338C17.4284 37.5633 14.0057 35.2336 11.147 32.2865C8.2159 29.2429 6.18443 25.9869 4.93687 22.332C3.79927 18.9982 4.07175 15.7752 5.7703 12.479Z" fill="#00AFC1"/>
</svg>
