<svg width="48" height="49" viewBox="0 0 48 49" fill="none" xmlns="http://www.w3.org/2000/svg">
<g clip-path="url(#clip0_4901_163)">
<path d="M40.5532 17.3689C40.2361 17.9199 40.0268 18.4331 39.6897 18.8419C38.5926 20.1735 37.4457 21.4641 36.3238 22.7756C29.3893 30.8799 21.7338 38.2937 14.1259 45.7526C13.5236 46.3436 12.8895 46.9074 12.2327 47.4377C11.8613 47.7354 11.4501 47.9803 11.0109 48.1652C10.6733 48.3225 10.2932 48.3649 9.92903 48.2861C9.56488 48.2072 9.23688 48.0112 8.99552 47.7283C6.74841 45.405 4.50394 43.0796 2.26201 40.752C1.49314 39.9491 1.4118 39.438 2.08816 38.5145C3.12638 37.0967 4.1601 35.652 5.37709 34.3924C8.92393 30.7213 12.495 27.0684 16.18 23.5359C20.1842 19.6974 24.3217 15.9969 28.4137 12.2499C29.2803 11.457 30.1864 10.7042 31.1028 9.96709C31.9031 9.32274 32.171 9.38316 33.0465 9.96024C35.5924 11.6383 37.621 13.8682 39.679 16.0657C40.0135 16.4244 40.2357 16.8896 40.5532 17.3689ZM10.3491 45.1856L31.372 23.4405L26.367 18.0052C18.9597 25.0729 11.3133 31.866 4.50879 39.5837L10.3491 45.1856ZM33.5076 21.0658L37.0404 17.3098C35.5425 15.4842 33.8384 13.8364 31.9621 12.399L28.2754 16.0753C30.1012 17.8168 31.8151 19.4518 33.5076 21.0658Z" fill="#00AFC1"/>
<path d="M41.7956 5.20894C41.2965 5.08165 40.8706 4.98863 40.4541 4.86241C40.2747 4.81356 40.1172 4.70539 40.0075 4.55564C39.8977 4.40588 39.8425 4.22346 39.8506 4.03829C39.8375 3.60051 39.9877 3.22165 40.43 3.08129C40.9136 2.92765 41.4196 2.8417 42.0258 2.70027C42.1054 2.36985 42.1966 1.98928 42.2889 1.60871C42.4595 0.904567 42.7228 0.644436 43.2746 0.635008C43.8168 0.625579 44.1136 0.890634 44.2984 1.58106C44.3483 1.82082 44.3858 2.063 44.4103 2.30663C44.6846 2.33149 44.9664 2.34394 45.2439 2.38487C45.9252 2.48537 46.292 2.82544 46.3602 3.39844C46.4295 3.98322 46.1832 4.41458 45.5701 4.69679C45.2758 4.81512 44.975 4.9165 44.6691 5.00041C44.5977 5.44124 44.5011 5.87766 44.38 6.30756C44.1532 6.97184 43.7346 7.29329 43.2058 7.29158C42.6484 7.29158 42.1502 6.88441 41.9628 6.22849C41.8873 5.89214 41.8315 5.55173 41.7956 5.20894Z" fill="#00AFC1"/>
<path d="M23.8876 8.29244C23.7645 9.71165 23.4317 10.1955 22.6222 10.1887C21.8604 10.1822 21.525 9.70177 21.3162 8.28449C20.9524 8.1827 20.5662 8.08285 20.1855 7.96628C19.987 7.91399 19.8145 7.79122 19.7006 7.62108C19.5867 7.45092 19.5391 7.24514 19.567 7.04251C19.5721 6.8563 19.6428 6.67775 19.7666 6.53808C19.8903 6.39841 20.0593 6.30642 20.2442 6.27815C20.6297 6.17658 21.0332 6.14292 21.4798 6.07135C21.5671 5.79449 21.6734 5.52665 21.7345 5.24894C21.8421 4.76358 22.1158 4.45608 22.6181 4.4113C23.0733 4.3708 23.3829 4.67956 23.5554 5.3087C23.5939 5.47852 23.6236 5.65017 23.6447 5.82301C24.0829 5.92672 24.5089 5.9462 24.8419 6.13156C25.127 6.28992 25.4839 6.63708 25.486 6.90301C25.4436 7.28727 25.2554 7.64086 24.9598 7.89127C24.7087 8.11349 24.2933 8.15144 23.8876 8.29244Z" fill="#00AFC1"/>
<path d="M44.6101 21.9314C45.2712 22.0929 46.1726 21.9228 46.326 22.9123C46.4684 23.8323 45.6763 24.0095 45.2033 24.2334C45.0215 24.8073 44.8044 25.3693 44.5533 25.9166C44.4658 26.0836 44.1151 26.1766 43.8783 26.1905C43.1324 26.2333 42.7811 25.7285 42.4819 24.2285C41.9574 23.9803 41.0835 24.0346 41.0958 23.1491C41.1081 22.2637 41.8888 22.244 42.4922 22.1495C42.7846 21.5526 42.6301 20.6902 43.5894 20.6733C44.0545 20.6649 44.1749 20.8237 44.6101 21.9314Z" fill="#00AFC1"/>
</g>
<defs>
<clipPath id="clip0_4901_163">
<rect width="48" height="48" fill="white" transform="translate(0 0.479492)"/>
</clipPath>
</defs>
</svg>
