<svg width="49" height="49" viewBox="0 0 49 49" fill="none" xmlns="http://www.w3.org/2000/svg">
<g clip-path="url(#clip0_4901_180)">
<path d="M47.131 16.195C46.9869 15.6048 46.6895 15.1516 46.2939 14.9189C46.1436 14.83 45.9769 14.7734 45.804 14.7527C45.6312 14.7319 45.4559 14.7474 45.2894 14.7982C44.7533 14.9528 44.1519 15.4321 44.3333 16.8382C44.4751 17.9387 44.5927 19.0631 44.7066 20.1493C44.7552 20.6128 44.8045 21.0762 44.8543 21.5397C44.6722 24.6229 44.4706 27.4027 43.8526 30.1708C43.0452 33.7863 41.3771 37.1945 38.8948 40.3C36.8815 42.8189 34.3088 44.38 31.0295 45.0719C28.3157 45.6246 25.5321 45.7347 22.784 45.3981C20.5501 45.1399 17.931 44.7296 15.4427 43.6432C12.5618 42.3854 10.5228 40.9 9.02528 38.9684C6.80957 36.1024 5.22578 32.7887 4.38051 29.2505C3.80829 27.004 3.65577 24.669 3.9309 22.3658C4.35248 18.9766 5.4936 15.646 7.52178 11.8836C8.23571 10.5556 9.20057 9.38299 10.3615 8.43248C13.187 6.11464 15.9853 4.52294 18.9163 3.56609C21.0007 2.88551 23.3012 2.67157 25.9519 2.91227C27.7134 3.07222 29.4252 3.60444 31.0805 4.1193C31.4515 4.23457 31.8225 4.34982 32.1943 4.46141L32.3655 4.51399C32.6823 4.62305 33.0091 4.69936 33.341 4.74172C33.5611 4.76134 34.0181 4.63765 34.1051 4.37382C34.1462 4.22302 34.1545 4.06492 34.129 3.91059C34.1035 3.75625 34.0449 3.60943 33.9576 3.48043C33.7331 3.20061 33.443 2.98228 33.1137 2.84539C32.0071 2.38028 31.0064 1.96647 29.9624 1.61453C27.9753 0.94199 25.8924 0.604663 23.7973 0.615999C20.437 0.644424 17.1397 1.54299 14.2188 3.22624C13.1401 3.83605 12.1868 4.40274 11.3044 4.95877C8.7068 6.5955 6.81919 8.51254 5.5337 10.8193C3.99091 13.5872 2.92517 16.1381 2.27516 18.6169C1.50463 21.556 1.2278 23.8475 1.37737 26.0466C1.63675 29.8531 2.83402 33.622 5.03892 37.5687C5.83326 39.0261 6.80118 40.3793 7.92098 41.5979C10.2627 44.103 13.2297 45.8753 16.9895 47.0151C19.881 47.8948 22.8838 48.3423 25.903 48.3431C27.2025 48.3428 28.5008 48.2608 29.7904 48.0979C34.8511 47.4597 38.7476 45.2396 41.7009 41.3106C44.0642 38.1668 45.6297 35.0205 46.4869 31.6931C47.4637 27.8993 47.8265 23.7675 47.5961 19.0612C47.5341 18.0926 47.3783 17.1326 47.131 16.195Z" fill="#00AFC1"/>
<path d="M28.049 9.53908C28.2565 9.56097 28.4639 9.58322 28.6714 9.60284C28.8576 9.62036 29.3544 9.66747 29.5204 9.17818C29.591 8.99389 29.5884 8.78915 29.5133 8.6067C29.4385 8.42427 29.2967 8.27822 29.1179 8.19907C28.7898 8.03098 28.4423 7.90496 28.0833 7.82386C26.4414 7.47366 24.7546 7.39514 23.088 7.59136C19.979 7.96152 17.3687 8.77688 15.1076 10.0843C12.1036 11.821 10.2453 14.0383 9.42631 16.8638C9.30094 17.297 9.13234 17.7325 8.98329 18.1167C7.70012 21.3384 7.38028 24.8713 8.06354 28.2758C8.54633 30.6821 9.14206 32.6247 10.4799 34.2845C13.5519 38.0954 17.0453 40.2456 21.1599 40.8581C22.047 40.9901 22.9585 41.0343 23.8381 41.0769C24.2389 41.0963 24.6532 41.1165 25.0587 41.1447H25.075C28.254 41.0781 31.3748 40.2684 34.1938 38.7785C34.8697 38.4374 35.4926 37.9973 36.0419 37.4725C37.7791 35.7429 38.8738 34.1032 39.4867 32.3125C39.6103 31.9514 39.7735 31.5928 39.9316 31.246C39.98 31.1396 40.0286 31.0333 40.076 30.9266C41.4917 27.749 41.479 24.2749 40.0371 20.306C39.9165 19.9723 39.7281 19.6682 39.4839 19.4134C39.3269 19.2356 39.1256 19.1039 38.901 19.0321C38.6764 18.9604 38.4369 18.9513 38.2077 19.0058C37.9893 19.0766 37.7941 19.2067 37.6435 19.3819C37.4929 19.5571 37.3924 19.7706 37.3532 19.9996C37.2565 20.4162 37.3281 20.8799 37.3912 21.2891L37.4056 21.3811C37.4791 21.8639 37.5681 22.3513 37.6542 22.8228C37.8003 23.6233 37.9516 24.4512 38.0289 25.2686C38.1709 26.6187 37.9923 27.9835 37.5083 29.2498C37.0775 30.39 36.5899 31.5073 36.0473 32.5975C35.15 34.3493 34.1676 35.4971 32.9551 36.2063C32.0055 36.7623 30.9333 37.1575 29.8963 37.5398L29.4877 37.6909C27.6548 38.3727 25.6826 38.3741 23.7641 38.3752H23.7494C20.799 38.3752 18.5521 37.7149 16.6795 36.2979C16.3745 36.0668 16.0537 35.8506 15.7435 35.6415C15.4 35.4099 15.045 35.1706 14.7154 34.9138C12.9288 33.5212 11.7615 31.9532 11.1469 30.118C10.4234 27.9597 9.6662 25.0967 10.2344 22.0887C10.4213 21.1873 10.6535 20.2965 10.9302 19.4194C11.0985 18.8537 11.2722 18.2688 11.4188 17.6861C12.0182 15.3059 13.4709 13.4623 15.8603 12.0501C19.0835 10.145 22.687 9.25999 26.5611 9.4138C27.056 9.4336 27.5604 9.48722 28.049 9.53908Z" fill="#00AFC1"/>
<path d="M19.6694 18.0939C20.4523 17.6386 21.2829 17.2733 22.1457 17.0047C23.0358 16.7363 23.9723 16.5548 24.8779 16.3793C25.1113 16.3339 25.3448 16.2887 25.5775 16.2419C25.8741 16.1826 26.3223 16.0925 26.3314 15.5615C26.3385 15.1449 26.0655 14.8655 25.6016 14.8138C25.3577 14.7862 25.1124 14.7764 24.8672 14.7846C23.2206 14.8473 21.5644 15.235 19.6555 16.0053C17.9928 16.6495 16.6383 17.9169 15.8726 19.545C14.4931 22.4125 14.4114 25.4796 15.6305 28.6609C15.9737 29.5563 16.4901 30.6993 17.4448 31.5998C19.5838 33.6168 22.186 34.6392 25.18 34.6392C25.3219 34.6392 25.4643 34.6432 25.6067 34.6478C25.7378 34.6522 25.871 34.6567 26.0045 34.6567C26.1641 34.6579 26.3237 34.6492 26.4822 34.6304C28.5685 34.3694 30.2019 33.6608 31.476 32.4641C33.868 30.2174 34.9498 27.2087 34.6923 23.5212C34.6558 23.0015 34.4033 22.4877 34.1808 22.0346C33.9797 21.6258 33.5197 21.3136 33.061 21.5422C32.7504 21.7346 32.5234 22.0388 32.4257 22.3939C32.366 22.6415 32.3454 22.8971 32.3651 23.1509C32.3683 23.2748 32.3712 23.3918 32.3651 23.5062C32.3498 23.7879 32.3428 24.0743 32.3361 24.3516C32.3373 24.9887 32.2884 25.625 32.19 26.2541C31.5759 29.5603 29.7366 31.5017 26.7233 32.0246C24.6003 32.3925 22.5115 31.992 20.5155 30.8334C19.7458 30.3866 18.9633 29.8586 18.4536 29.026C16.9637 26.5924 16.5955 24.0014 17.3591 21.325C17.7902 19.8104 18.5684 18.723 19.6694 18.0939Z" fill="#00AFC1"/>
<path d="M39.9586 6.85051C39.984 6.71456 40.0113 6.57864 40.0386 6.44287C40.1332 6.01834 40.201 5.58816 40.2416 5.15492C40.298 4.38849 39.9477 4.11626 39.3637 3.92531C39.1389 3.84495 38.897 3.82661 38.6629 3.87211C38.4286 3.9176 38.2107 4.0253 38.031 4.18423C36.3774 5.58341 34.7099 7.00137 33.0748 8.39845C32.4869 8.9014 32.2794 9.54518 32.4263 10.4242C32.5204 10.9894 32.5789 11.5729 32.6352 12.1374C32.6783 12.5664 32.7227 13.0097 32.7826 13.4453C32.8294 13.7874 32.7341 14.0193 32.4312 14.3008L32.2958 14.4265C31.4596 15.203 30.5951 16.0059 29.7827 16.8363C28.3363 18.3147 26.8777 19.8294 25.4658 21.2941C24.7956 21.9901 24.1246 22.6857 23.4532 23.381C22.9732 23.8777 23.0741 24.2601 23.2436 24.4934C23.3062 24.5873 23.3904 24.6642 23.489 24.7177C23.5875 24.7709 23.6975 24.799 23.8092 24.7993C24.0377 24.7881 24.2571 24.7058 24.4374 24.5633C24.7518 24.327 25.0496 24.0688 25.3287 23.7906C26.9456 22.2444 28.5616 20.6969 30.1765 19.1483L32.8014 16.633C33.0658 16.3803 33.2545 16.2582 33.5899 16.2722C35.0221 16.3157 36.4777 16.3146 37.8856 16.313C38.2852 16.3123 38.6848 16.3123 39.0846 16.313H39.0879C39.3343 16.3195 39.5788 16.2695 39.8035 16.1667C40.0281 16.064 40.2268 15.9112 40.3848 15.7197C41.5261 14.4 42.7073 13.0763 43.8136 11.8423C44.357 11.2364 44.8271 10.6049 44.6165 9.54483C44.4263 8.59184 44.2989 8.17016 43.2406 8.1642C42.6881 8.16332 42.1279 8.19293 41.5863 8.22411C41.2797 8.24163 40.9731 8.25918 40.6663 8.27075C40.4187 8.27986 40.1732 8.27789 39.8882 8.27544L39.6717 8.27369C39.694 8.16402 39.7161 8.0565 39.7381 7.95104C39.8168 7.56879 39.8908 7.21016 39.9586 6.85051ZM42.5148 10.3542L42.5577 10.3573L39.5953 14.1551H34.624C34.6096 14.1043 34.5939 14.0526 34.5782 14.0003C34.5057 13.7928 34.4594 13.577 34.4398 13.3578C34.4179 12.778 34.4189 12.1857 34.4198 11.613C34.4198 11.2695 34.421 10.926 34.4168 10.5828C34.4127 10.244 34.4614 9.97334 34.7118 9.75437C35.648 8.93556 36.5809 8.11236 37.5711 7.23855L38.4071 6.50138C38.3987 6.63225 38.3916 6.72737 38.3776 6.81899C38.3376 7.07879 38.2928 7.3379 38.248 7.59699C38.1631 8.09013 38.0751 8.60009 38.0219 9.10829C37.9748 9.55641 38.0367 9.86154 38.2167 10.0674C38.3968 10.2732 38.6812 10.3711 39.1173 10.3792C39.7544 10.3915 40.4016 10.3731 41.0269 10.3557C41.366 10.3464 41.7051 10.3372 42.044 10.3323C42.183 10.3319 42.3214 10.3405 42.5148 10.3542Z" fill="#00AFC1"/>
</g>
<defs>
<clipPath id="clip0_4901_180">
<rect width="48" height="48" fill="white" transform="translate(0.5 0.479492)"/>
</clipPath>
</defs>
</svg>
