<svg width="44" height="49" viewBox="0 0 44 49" fill="none" xmlns="http://www.w3.org/2000/svg">
<path d="M15.894 0.797373L16.2119 0.479492V0.797373L14.6225 1.75102V1.90996C14.6225 2.54572 16.9007 2.91658 21.457 3.02254C22.3046 4.50598 22.7285 5.93645 22.7285 7.31393C21.5629 11.6583 20.3974 14.0424 19.2318 14.4662C16.6887 17.5391 13.7219 19.0755 10.3311 19.0755H9.0596V19.3934L10.0132 21.9364C10.0132 27.1285 9.27152 32.1086 7.78808 36.8768V38.4662H7.94702L7.78808 39.102H7.31126C4.87417 37.9364 3.39073 36.4 2.86093 34.4927L0 18.7576C0.423841 14.9431 1.0596 11.9762 1.90728 9.85698C1.90728 6.99605 4.02649 4.29406 8.2649 1.75102C10.9139 1.11525 13.457 0.797373 15.894 0.797373ZM9.37748 6.99605H8.2649L7.4702 7.63181V8.42651L8.2649 8.90333H9.0596C10.649 7.20797 11.8146 6.36029 12.5563 6.36029C13.0861 5.83049 13.351 5.35366 13.351 4.92982C12.0795 4.92982 10.755 5.61857 9.37748 6.99605ZM19.8675 6.51923L19.2318 6.99605V8.90333C19.2318 9.53909 18.9669 10.2278 18.4371 10.9696C18.4371 11.8172 18.8079 12.2411 19.5497 12.2411C20.0795 12.2411 20.5033 11.9232 20.8212 11.2874V8.74439C20.6093 7.26095 20.2914 6.51923 19.8675 6.51923ZM10.8079 10.3338C10.8079 10.9696 11.3377 11.4994 12.3974 11.9232L12.2384 12.2411V13.8305H13.0331C14.0927 13.0888 14.6225 12.1351 14.6225 10.9696V10.4927L14.3046 9.85698C14.3046 9.32718 14.5166 8.85035 14.9404 8.42651V7.31393L14.3046 6.83711H13.8278C11.8146 6.83711 10.8079 8.00267 10.8079 10.3338ZM8.2649 10.8106L7.78808 11.1285L8.2649 11.6053H8.42384L8.74172 11.1285L8.42384 10.8106H8.2649ZM5.08609 18.7576L4.45033 19.0755V19.7113H5.08609L5.72185 19.0755L5.08609 18.7576ZM37.1921 9.85698H37.351L35.7616 11.1285V11.2874C35.7616 11.9232 38.0397 12.2941 42.596 12.4C43.4437 13.7775 43.8675 15.208 43.8675 16.6914C42.702 21.0358 41.5364 23.4199 40.3709 23.8437C37.8278 26.9166 34.8609 28.453 31.4702 28.453H30.1987V28.6119L31.1523 31.3139C31.1523 36.2941 30.4106 41.1682 28.9272 45.9364V47.6848L29.0861 47.8437L28.9272 48.4795H28.6093C26.0662 47.208 24.5298 45.6715 24 43.8702L21.1391 28.1351C21.5629 24.1086 22.1987 21.0888 23.0464 19.0755C23.0464 16.3206 25.1656 13.6715 29.404 11.1285C32.2649 10.2808 34.8609 9.85698 37.1921 9.85698ZM30.5166 16.3735L30.1987 16.2146H29.404L28.6093 16.8504V17.6451L29.404 18.2808H30.1987C31.7881 16.4795 32.9536 15.5788 33.6954 15.5788C34.2252 15.049 34.4901 14.5722 34.4901 14.1484C33.3245 14.1484 32 14.8901 30.5166 16.3735ZM41.0066 15.7378L40.3709 16.3735V18.2808C40.3709 19.0225 40.106 19.6583 39.5762 20.1881C39.5762 20.9298 39.947 21.3007 40.6887 21.3007C41.2185 21.3007 41.6424 21.0888 41.9603 20.6649V17.9629C41.7483 16.4795 41.4305 15.7378 41.0066 15.7378ZM31.947 19.7113C31.947 20.347 32.4768 20.8768 33.5364 21.3007H33.3775V23.049H34.3311C35.2848 22.2013 35.7616 21.2477 35.7616 20.1881V19.8702L35.4437 19.2345C35.4437 18.5987 35.6556 18.0689 36.0795 17.6451V16.6914L35.6026 16.0557H34.9669C32.9536 16.0557 31.947 17.2742 31.947 19.7113ZM29.404 20.0292L28.9272 20.347L29.404 20.8239H29.5629L30.0397 20.347L29.5629 20.0292H29.404ZM26.2252 28.1351L25.7483 28.453V28.7709L26.2252 28.9298L26.8609 28.453L26.2252 28.1351Z" fill="#0D0619"/>
</svg>
