<svg width="65" height="65" viewBox="0 0 65 65" fill="none" xmlns="http://www.w3.org/2000/svg">
<g clip-path="url(#clip0_1158_612)">
<path d="M34.0878 36.0361C37.5058 36.0662 40.1308 36.7044 42.4902 38.1944C43.1426 38.591 43.6749 39.1576 44.0299 39.8337C44.1282 40.1177 44.1585 40.4209 44.1185 40.7188C44.0784 41.0167 43.9691 41.3011 43.7993 41.5491C43.4715 41.9294 42.6841 42.0925 42.1257 42.0425C41.5452 41.9414 41.0069 41.6728 40.5769 41.2699C36.0529 37.3718 27.8457 39.1684 24.7148 42.661C24.3517 43.0662 24.0189 43.547 23.566 43.8085C23.1982 44.0205 22.5204 44.156 22.2546 43.9579C21.9743 43.7481 21.8669 43.0683 21.9614 42.6577C22.1297 42.1402 22.4046 41.6637 22.7685 41.259C24.6954 38.7914 27.2791 37.3521 30.2843 36.6672C31.7385 36.3347 33.2316 36.1743 34.0878 36.0361Z" fill="#00AFC1"/>
<path d="M19.4734 24.8516C19.338 24.8592 19.2022 24.8584 19.0669 24.8491C18.3413 24.7567 17.502 24.7035 17.4498 23.7563C17.3952 22.784 18.2293 22.7479 18.9451 22.5509C20.1505 22.214 21.3374 21.8135 22.5005 21.3513C23.2622 21.0508 24.0031 20.5186 24.6984 21.3552C25.2074 21.9669 24.8897 23.078 23.8313 23.5979C22.4836 24.2598 20.9993 24.6437 19.5737 25.1474C19.5411 25.0489 19.5077 24.9503 19.4734 24.8516Z" fill="#00AFC1"/>
<path d="M46.6191 28.1194C46.0476 28.9663 45.685 29.8037 45.0635 30.3416C44.4138 30.9039 43.3748 30.5282 42.8123 29.7649C42.0842 28.777 42.1263 27.1124 42.9016 26.219C43.5278 25.4977 44.6053 25.1625 45.1832 25.7403C45.7714 26.3283 46.0817 27.193 46.6191 28.1194Z" fill="#00AFC1"/>
<path d="M24.4565 28.0447C24.3027 28.6146 24.2879 29.2266 23.9885 29.6244C23.6735 30.0429 23.0891 30.4888 22.6171 30.4951C22.3383 30.4652 22.0692 30.3758 21.8279 30.233C21.5867 30.0902 21.3789 29.8973 21.2185 29.6673C20.5585 28.6526 20.6574 27.4691 21.0863 26.3941C21.5152 25.319 23.3102 25.24 23.885 26.2575C24.1855 26.7913 24.2726 27.4442 24.4565 28.0447Z" fill="#00AFC1"/>
<path d="M44.5894 24.6774C43.707 24.2422 42.6327 23.8143 41.6915 23.1868C41.3973 22.9906 41.4618 22.2563 41.3621 21.7681C41.8508 21.7219 42.4661 21.4661 42.8037 21.6699C43.2238 21.9358 43.6958 22.1091 44.1882 22.1782C44.6805 22.2473 45.182 22.2105 45.659 22.0705C45.9631 21.9915 46.3221 21.8661 46.5879 21.9574C47.0412 22.1544 47.4751 22.3936 47.8837 22.6718C47.6198 23.0977 47.4526 23.7015 47.0701 23.9105C46.4188 24.2668 45.6311 24.3749 44.5894 24.6774Z" fill="#00AFC1"/>
<path d="M1.79858 23.9163C-1.02961 35.0321 1.44696 44.8382 9.16466 53.0657C9.36574 53.2782 9.57038 53.4908 9.77528 53.6957C13.9209 57.8412 19.0847 60.4009 23.1764 62.1821C24.9323 62.949 33.9433 63.8804 36.3814 63.5173C50.8699 61.3535 60.4046 53.1817 63.7254 39.5101C64.3596 36.8321 64.6754 34.0886 64.6663 31.3365C64.6819 24.8534 61.952 17.3163 56.3227 11.6714C55.7432 11.1922 55.1657 10.6958 54.6073 10.2146C53.3959 9.17347 52.1441 8.09546 50.8343 7.17613C40.8294 0.134336 30.4343 0.0949341 19.9387 3.82907C10.4359 7.20776 4.33336 13.9674 1.79858 23.9163ZM19.9791 7.15752C29.1882 3.33077 38.4282 2.65542 47.4401 8.38693C49.088 9.43603 53.4811 12.9866 54.1726 13.5199L54.2171 13.5526L54.2537 13.5934C57.7696 17.3218 61.7955 24.139 61.7067 31.1469C61.6774 34.1434 61.2718 37.1243 60.4994 40.0197C58.2103 48.3403 52.7372 54.4043 43.7677 58.5518C34.6496 62.9179 21.573 58.5041 18.0938 56.2072C14.2481 53.5782 10.8832 50.3073 8.14617 46.5378C3.85361 40.4604 2.89058 31.7244 5.19559 23.7384C6.27529 20.051 8.16203 16.6501 10.719 13.7822C13.276 10.9143 16.4392 8.6514 19.9791 7.15752Z" fill="#00AFC1"/>
</g>
<defs>
<clipPath id="clip0_1158_612">
<rect width="64" height="64" fill="white" transform="translate(0.666504 0.47937)"/>
</clipPath>
</defs>
</svg>
